<?xml version="1.0" encoding="UTF-8" standalone="no"?>
<svg
   xmlns:dc="http://purl.org/dc/elements/1.1/"
   xmlns:cc="http://creativecommons.org/ns#"
   xmlns:rdf="http://www.w3.org/1999/02/22-rdf-syntax-ns#"
   xmlns:svg="http://www.w3.org/2000/svg"
   xmlns="http://www.w3.org/2000/svg"
   xmlns:sodipodi="http://sodipodi.sourceforge.net/DTD/sodipodi-0.dtd"
   xmlns:inkscape="http://www.inkscape.org/namespaces/inkscape"
   version="1.0"
   width="96pt"
   height="96.000015pt"
   viewBox="0 0 96 96.000015"
   preserveAspectRatio="xMidYMid meet"
   id="svg12"
   sodipodi:docname="symbolic.svg"
   inkscape:version="1.0.2 (e86c870879, 2021-01-15)">
  <sodipodi:namedview
     pagecolor="#ffffff"
     bordercolor="#666666"
     borderopacity="1"
     objecttolerance="10"
     gridtolerance="10"
     guidetolerance="10"
     inkscape:pageopacity="0"
     inkscape:pageshadow="2"
     inkscape:window-width="1366"
     inkscape:window-height="711"
     id="namedview10"
     showgrid="false"
     inkscape:zoom="0.96582734"
     inkscape:cx="260.90365"
     inkscape:cy="29.743543"
     inkscape:window-x="0"
     inkscape:window-y="0"
     inkscape:window-maximized="1"
     inkscape:current-layer="svg12" />
  <metadata
     id="metadata18">
    <rdf:RDF>
      <cc:Work
         rdf:about="">
        <dc:format>image/svg+xml</dc:format>
        <dc:type
           rdf:resource="http://purl.org/dc/dcmitype/StillImage" />
        <dc:title />
      </cc:Work>
    </rdf:RDF>
  </metadata>
  <defs
     id="defs16" />
  <g
     transform="matrix(0.02427805,0,0,-0.02426086,-3.234386,98.951498)"
     fill="#000000"
     stroke="none"
     id="g10">
    <path
       d="M 2015,4073 C 1473,4040 987,3808 638,3415 166,2885 13,2162 230,1488 407,938 838,477 1376,262 c 224,-89 418,-130 664,-139 445,-16 865,111 1233,374 94,68 291,255 370,351 425,520 556,1227 346,1866 -195,595 -665,1064 -1261,1261 -74,24 -183,53 -243,64 -100,19 -351,44 -400,39 -11,-1 -42,-3 -70,-5 z m 440,-253 c 352,-75 664,-245 909,-495 258,-264 418,-581 482,-960 25,-146 23,-413 -5,-567 -59,-334 -215,-646 -447,-897 -65,-70 -66,-71 -117,-71 l -52,1 60,29 c 33,16 76,43 95,60 32,29 33,31 10,25 -140,-34 -233,-47 -375,-51 -197,-7 -309,12 -438,74 -229,111 -362,337 -348,592 1,35 2,35 33,-29 64,-126 178,-216 290,-227 l 53,-5 -30,22 c -16,12 -62,54 -101,93 -95,95 -118,153 -112,283 3,77 8,100 34,149 33,65 88,111 145,120 28,5 52,-1 110,-29 41,-20 112,-50 159,-67 108,-40 304,-133 347,-166 96,-73 74,-133 -50,-135 l -52,-1 41,-19 c 163,-75 375,-64 496,26 97,71 158,194 158,316 v 58 l -117,148 c -64,81 -130,165 -146,185 l -29,37 21,30 22,31 -21,77 c -12,43 -37,116 -57,163 -228,531 -685,851 -1315,919 -183,20 -573,9 -673,-19 -29,-8 -29,-8 11,-9 44,-1 137,-16 199,-33 40,-11 39,-11 -65,-29 -244,-42 -445,-133 -628,-287 -29,-25 -51,-46 -49,-48 2,-2 37,4 78,15 41,10 99,21 129,25 l 55,7 -68,-40 c -153,-90 -399,-317 -527,-485 -8,-11 12,-2 45,21 33,22 87,55 120,73 l 60,34 -70,-75 C 617,2576 530,2456 418,2267 l -60,-102 6,90 c 20,320 168,683 386,950 80,97 240,249 339,319 221,158 486,267 758,311 135,22 476,14 608,-15 z m -360,-350 c 581,-64 991,-344 1241,-849 28,-58 60,-129 70,-158 l 18,-51 -28,-41 -28,-40 152,-203 152,-203 -7,-57 c -24,-222 -153,-340 -369,-337 -85,1 -166,16 -98,18 52,2 67,15 81,74 12,49 12,58 -7,100 -14,32 -35,56 -68,79 -27,18 -68,51 -93,73 -29,26 -40,32 -33,18 15,-27 100,-113 113,-113 10,0 49,-59 49,-74 0,-6 -12,2 -27,16 -70,64 -168,117 -352,190 -152,60 -168,68 -254,125 -112,76 -199,187 -223,287 l -7,29 119,-6 c 65,-3 164,-13 219,-22 55,-10 142,-18 193,-18 l 94,-2 -39,-17 -38,-17 h 40 c 67,-1 117,18 159,62 23,25 41,37 44,29 2,-8 34,-12 104,-12 h 101 l -7,48 c -5,43 -63,178 -72,170 -2,-2 3,-26 11,-53 8,-26 15,-63 15,-82 v -33 h -59 -59 l -48,55 c -58,68 -159,151 -241,199 -75,44 -84,45 -44,5 17,-17 31,-34 31,-38 0,-4 -9,-24 -20,-46 -11,-22 -17,-47 -14,-57 8,-26 -16,-23 -60,7 -20,13 -36,20 -36,16 0,-12 58,-61 73,-62 7,-1 1,-4 -13,-9 -14,-4 -45,-5 -70,-3 -41,5 -43,4 -25,-9 11,-9 38,-21 60,-29 l 40,-13 -43,-10 c -33,-7 -56,-5 -100,8 -31,9 -68,18 -82,20 -14,2 -56,11 -95,20 -38,8 -83,15 -100,15 -24,0 -16,-6 40,-27 l 70,-27 -115,-6 c -96,-5 -125,-10 -177,-33 -34,-16 -71,-38 -83,-51 l -22,-23 90,-3 c 50,-2 93,-6 95,-9 3,-3 8,-16 12,-30 6,-23 2,-27 -44,-44 -153,-55 -292,-194 -350,-349 -30,-83 -26,-87 22,-20 38,50 127,137 134,129 1,-1 -15,-37 -36,-79 -130,-259 -117,-561 35,-808 48,-77 116,-171 121,-166 1,2 -6,25 -16,53 -23,62 -37,149 -22,139 6,-3 11,-10 11,-15 0,-22 76,-135 128,-191 54,-58 151,-133 160,-124 3,2 -9,20 -26,39 -35,41 -87,125 -80,131 3,3 33,-17 67,-45 81,-65 178,-122 282,-166 86,-36 291,-94 334,-94 45,0 35,-18 -33,-58 C 2790,461 2565,385 2310,355 1836,299 1379,432 1004,736 689,991 472,1349 390,1749 c -31,152 -29,163 46,314 149,297 312,532 518,745 49,50 87,92 84,92 -2,0 -42,-11 -88,-25 -46,-14 -85,-23 -87,-21 -11,10 292,224 449,316 31,19 54,38 51,43 -3,6 -46,7 -102,4 -96,-6 -96,-6 -71,13 32,24 196,92 275,114 165,44 429,59 602,33 45,-7 79,-9 77,-5 -8,12 -132,73 -179,88 -59,18 -66,31 -15,25 25,-2 90,-9 145,-15 z m 921,-917 c 63,-60 67,-68 50,-101 -31,-60 -121,-60 -152,0 -24,47 -3,103 46,121 24,9 25,8 56,-20 z"
       id="path2" />
    <path
       d="m 3272,2308 c -21,-21 -13,-28 28,-28 22,0 40,4 40,8 0,14 -23,32 -40,32 -9,0 -21,-5 -28,-12 z"
       id="path4" />
    <path
       d="m 2545,2243 c 21,-50 48,-77 110,-112 28,-16 68,-50 90,-76 36,-44 121,-95 159,-95 7,0 39,-13 70,-28 31,-16 56,-25 56,-21 0,14 -122,89 -163,100 -29,7 -58,27 -95,65 -29,29 -74,65 -100,78 -46,24 -122,95 -122,116 0,6 -5,10 -10,10 -6,0 -4,-16 5,-37 z"
       id="path6" />
    <path
       d="m 2948,2512 c -15,-18 4,-58 32,-65 38,-10 79,50 48,69 -19,12 -69,10 -80,-4 z"
       id="path8" />
  </g>
</svg>
